<?xml version="1.0" standalone="no"?>
<!DOCTYPE svg PUBLIC "-//W3C//DTD SVG 20010904//EN"
 "http://www.w3.org/TR/2001/REC-SVG-20010904/DTD/svg10.dtd">
<svg version="1.0" xmlns="http://www.w3.org/2000/svg"
 width="250.000000pt" height="250.000000pt" viewBox="0 0 250.000000 250.000000"
 preserveAspectRatio="xMidYMid meet">

<g transform="translate(0.000000,250.000000) scale(0.100000,-0.100000)" stroke="none">
<path d="M1060 2486 c-184 -33 -363 -103 -511 -202 -94 -62 -226 -189 -300
-287 -71 -94 -170 -292 -199 -397 -86 -316 -60 -609 80 -896 70 -144 149 -253
263 -360 427 -404 1065 -456 1558 -128 94 62 226 189 300 287 71 94 170 292
199 397 86 316 60 609 -80 896 -172 352 -482 594 -870 679 -101 22 -343 28
-440 11z m452 -478 c188 -62 345 -191 432 -358 59 -113 77 -182 83 -316 7
-147 -10 -235 -66 -350 -132 -271 -373 -424 -667 -424 -121 0 -180 11 -287 53
l-77 30 -185 -48 c-102 -26 -188 -45 -192 -42 -3 4 16 89 44 189 l50 183 -22
45 c-64 128 -91 317 -65 456 54 293 267 520 560 595 107 27 285 21 392 -13z"/>
<path d="M1205 1909 c-178 -26 -344 -135 -442 -290 -108 -172 -117 -406 -23
-597 l41 -82 -30 -107 c-16 -59 -28 -109 -26 -111 1 -2 53 11 115 27 l112 30
60 -30 c339 -171 742 -4 864 357 53 157 40 316 -37 472 -113 230 -379 369
-634 331z m-72 -368 l39 -94 -32 -44 c-42 -57 -37 -75 45 -162 60 -63 162
-131 197 -131 8 0 31 23 52 50 21 28 42 50 47 50 5 0 50 -21 100 -46 l91 -45
-6 -40 c-9 -57 -30 -84 -89 -114 -62 -30 -108 -32 -190 -4 -142 48 -265 137
-359 260 -129 171 -147 284 -60 381 32 36 39 39 81 36 l46 -3 38 -94z"/>
</g>
</svg>
